# xmcd
#
# Track frame offsets:
#	150
#	12680
#	25564
#	38942
#	50044
#	63067
#	76012
#	87404
#	100071
#	113519
#	126450
#	139126
#	152839
#	165546
#	179455
#	192838
#	205770
#	220077
#	233624
#	247065
#	260150
#	272852
#
# Disc length: 3810 seconds
#
# Revision: 0
# Processed by: cddbd v1.4PL0 Copyright (c) Steve Scherf et al.
# Submitted via: dBpowerAMP V4.0
#
DISCID=330ee016
DTITLE=Big Bill Broonzy - Big Bill Blues
DYEAR=1900
DGENRE=
TTITLE0=I Feel So Good
TTITLE1=How Do You Want It Done?
TTITLE2=Wee Wee Hours
TTITLE3=All By Myself
TTITLE4=I'm Gonna Move To The Outskirts of Town
TTITLE5=Bull Cow Blues
TTITLE6=Baby I Done Got Wise
TTITLE7=Long Tall Mama
TTITLE8=Looking Up At Down
TTITLE9=When I Been Drinking
TTITLE10=Big Bill Blues
TTITLE11=Just a Dream (No. 2)
TTITLE12=W P A Rag
TTITLE13=Worrying You Off My Mind Pt 1
TTITLE14=Flat Foot Susie With Her Flat Yes Yes
TTITLE15=Too Too Train Blues
TTITLE16=Horny Frog
TTITLE17=Come Home Early
TTITLE18=Make A Date With An Angel
TTITLE19=I Want My Hands On It
TTITLE20=Night Time Is The Right Time
TTITLE21=New Shake 'Em On Down
EXTD=
EXTT0=
EXTT1=
EXTT2=
EXTT3=
EXTT4=
EXTT5=
EXTT6=
EXTT7=
EXTT8=
EXTT9=
EXTT10=
EXTT11=
EXTT12=
EXTT13=
EXTT14=
EXTT15=
EXTT16=
EXTT17=
EXTT18=
EXTT19=
EXTT20=
EXTT21=
PLAYORDER=
